<svg width="24" height="25" viewBox="0 0 24 25" fill="none" xmlns="http://www.w3.org/2000/svg">
<path fill-rule="evenodd" clip-rule="evenodd" d="M14.2307 8.66966C15.9089 10.4271 15.8448 13.2123 14.0874 14.8906C12.3299 16.5688 9.54476 16.5047 7.86647 14.7473C6.18819 12.9898 6.25235 10.2046 8.00977 8.52637C9.76719 6.84809 12.5524 6.91224 14.2307 8.66966ZM16.013 15.7486C18.0243 13.2836 17.9311 9.64871 15.6771 7.28839C13.2359 4.73214 9.18475 4.63883 6.6285 7.07996C4.07225 9.5211 3.97893 13.5723 6.42007 16.1285C8.67409 18.4888 12.3008 18.7493 14.8559 16.8537L16.5476 18.6252C16.8527 18.9447 17.3591 18.9564 17.6787 18.6512C17.9982 18.3461 18.0099 17.8397 17.7047 17.5201L16.013 15.7486Z" fill="#B2B2B2"/>
</svg>
